<mxfile host="app.diagrams.net" agent="Mozilla/5.0 (X11; Ubuntu; Linux x86_64; rv:140.0) Gecko/20100101 Firefox/140.0" version="27.2.0">
  <diagram name="Page-1" id="kp85ORi3uPA0NuDMXLG0">
    <mxGraphModel dx="1426" dy="765" grid="1" gridSize="10" guides="1" tooltips="1" connect="1" arrows="1" fold="1" page="1" pageScale="1" pageWidth="850" pageHeight="1100" math="0" shadow="0">
      <root>
        <mxCell id="0" />
        <mxCell id="1" parent="0" />
        <mxCell id="a5YLTvZABZ1f-nXH2WvJ-19" value="&lt;font style=&quot;font-size: 4px;&quot;&gt;&lt;span style=&quot;mso-ansi-language:EN-US&quot;&gt;The work has been made under the supervision of&lt;br&gt;&lt;/span&gt;&lt;/font&gt;&lt;div&gt;&lt;font style=&quot;font-size: 4px;&quot;&gt;&lt;span style=&quot;mso-ansi-language:EN-US&quot;&gt;Mr. Vincenzo de Florio.&lt;/span&gt;&lt;/font&gt;&lt;/div&gt;&lt;div&gt;&lt;font style=&quot;font-size: 4px;&quot;&gt;&lt;span style=&quot;mso-ansi-language:EN-US&quot;&gt;&lt;br&gt;&lt;/span&gt;&lt;/font&gt;&lt;/div&gt;&lt;div&gt;&lt;font style=&quot;font-size: 4px;&quot;&gt;&lt;span style=&quot;mso-ansi-language:EN-US&quot;&gt;It&amp;nbsp; is expected to benefit to the NTE engineers on the SMR-LFR&lt;/span&gt;&lt;/font&gt;&lt;/div&gt;&lt;div&gt;&lt;font style=&quot;font-size: 4px;&quot;&gt;&lt;span style=&quot;mso-ansi-language:EN-US&quot;&gt;&lt;/span&gt;&lt;/font&gt;&lt;/div&gt;&lt;font style=&quot;font-size: 4px;&quot;&gt;&lt;span style=&quot;mso-ansi-language:EN-US&quot;&gt;research.&lt;/span&gt;&lt;/font&gt;&lt;br&gt;&lt;div&gt;&lt;br&gt;&lt;/div&gt;" style="rounded=0;whiteSpace=wrap;html=1;fontSize=5;align=left;" vertex="1" parent="1">
          <mxGeometry x="255" y="90" width="50" height="70" as="geometry" />
        </mxCell>
        <mxCell id="a5YLTvZABZ1f-nXH2WvJ-20" value="File" style="rounded=0;whiteSpace=wrap;html=1;fillColor=#fff2cc;strokeColor=#d6b656;" vertex="1" parent="1">
          <mxGeometry x="60" y="110" width="50" height="30" as="geometry" />
        </mxCell>
        <mxCell id="a5YLTvZABZ1f-nXH2WvJ-21" value="Loader" style="rounded=0;whiteSpace=wrap;html=1;fillColor=#f8cecc;strokeColor=#b85450;" vertex="1" parent="1">
          <mxGeometry x="160" y="110" width="50" height="30" as="geometry" />
        </mxCell>
        <mxCell id="a5YLTvZABZ1f-nXH2WvJ-23" value="&lt;font style=&quot;font-size: 4px;&quot;&gt;&lt;span style=&quot;mso-ansi-language:EN-US&quot;&gt;&lt;span style=&quot;color: rgb(102, 102, 255);&quot;&gt;The work has been made under&lt;/span&gt; &lt;span style=&quot;color: rgb(234, 107, 102);&quot;&gt;t&lt;span style=&quot;color: rgb(234, 107, 102);&quot;&gt;he supervision of&lt;br&gt;&lt;/span&gt;&lt;/span&gt;&lt;/span&gt;&lt;/font&gt;&lt;div&gt;&lt;font style=&quot;font-size: 4px; color: rgb(234, 107, 102);&quot;&gt;&lt;span style=&quot;mso-ansi-language:EN-US&quot;&gt;Mr. Vincenzo de Florio.&lt;/span&gt;&lt;/font&gt;&lt;/div&gt;&lt;div&gt;&lt;font style=&quot;font-size: 4px;&quot;&gt;&lt;span style=&quot;mso-ansi-language:EN-US&quot;&gt;&lt;br&gt;&lt;/span&gt;&lt;/font&gt;&lt;/div&gt;&lt;div&gt;&lt;font style=&quot;font-size: 4px;&quot;&gt;&lt;span style=&quot;mso-ansi-language:EN-US&quot;&gt;&lt;span style=&quot;color: rgb(0, 153, 0);&quot;&gt;It&amp;nbsp; is expected to benefit to the NTE &lt;/span&gt;&lt;span style=&quot;color: rgb(102, 102, 255);&quot;&gt;engineers on the SMR-LFR &lt;/span&gt;&lt;/span&gt;&lt;/font&gt;&lt;font style=&quot;font-size: 4px; color: rgba(0, 0, 0, 0);&quot;&gt;&lt;span style=&quot;mso-ansi-language:EN-US&quot;&gt;research.&lt;/span&gt;&lt;/font&gt;&lt;/div&gt;&lt;div&gt;&lt;br&gt;&lt;/div&gt;" style="rounded=0;whiteSpace=wrap;html=1;fontSize=5;align=left;" vertex="1" parent="1">
          <mxGeometry x="440" y="90" width="50" height="70" as="geometry" />
        </mxCell>
        <mxCell id="a5YLTvZABZ1f-nXH2WvJ-24" value="Embedding model" style="rounded=0;whiteSpace=wrap;html=1;fillColor=#dae8fc;strokeColor=#6c8ebf;" vertex="1" parent="1">
          <mxGeometry x="530" y="110" width="70" height="30" as="geometry" />
        </mxCell>
        <mxCell id="a5YLTvZABZ1f-nXH2WvJ-25" value="&lt;div&gt;&lt;font style=&quot;font-size: 8px;&quot;&gt;(12,93,-3,...)&lt;/font&gt;&lt;/div&gt;&lt;div&gt;&lt;font style=&quot;font-size: 8px;&quot;&gt;(93,-3,0,...)&lt;br&gt;&lt;/font&gt;&lt;/div&gt;&lt;div&gt;&lt;font style=&quot;font-size: 8px;&quot;&gt;...&lt;br&gt;&lt;/font&gt;&lt;/div&gt;" style="rounded=0;whiteSpace=wrap;html=1;fontSize=5;align=left;" vertex="1" parent="1">
          <mxGeometry x="640" y="90" width="50" height="70" as="geometry" />
        </mxCell>
        <mxCell id="a5YLTvZABZ1f-nXH2WvJ-26" value="Database" style="rounded=0;whiteSpace=wrap;html=1;fillColor=#fff2cc;strokeColor=#d6b656;" vertex="1" parent="1">
          <mxGeometry x="730" y="110" width="70" height="30" as="geometry" />
        </mxCell>
        <mxCell id="a5YLTvZABZ1f-nXH2WvJ-27" value="" style="endArrow=classic;html=1;rounded=0;entryX=0;entryY=0.5;entryDx=0;entryDy=0;exitX=1;exitY=0.5;exitDx=0;exitDy=0;" edge="1" parent="1" source="a5YLTvZABZ1f-nXH2WvJ-20" target="a5YLTvZABZ1f-nXH2WvJ-21">
          <mxGeometry width="50" height="50" relative="1" as="geometry">
            <mxPoint x="350" y="130" as="sourcePoint" />
            <mxPoint x="400" y="80" as="targetPoint" />
          </mxGeometry>
        </mxCell>
        <mxCell id="a5YLTvZABZ1f-nXH2WvJ-28" value="" style="endArrow=classic;html=1;rounded=0;entryX=0;entryY=0.5;entryDx=0;entryDy=0;exitX=1;exitY=0.5;exitDx=0;exitDy=0;" edge="1" parent="1" source="a5YLTvZABZ1f-nXH2WvJ-21" target="a5YLTvZABZ1f-nXH2WvJ-19">
          <mxGeometry width="50" height="50" relative="1" as="geometry">
            <mxPoint x="120" y="135" as="sourcePoint" />
            <mxPoint x="160" y="135" as="targetPoint" />
          </mxGeometry>
        </mxCell>
        <mxCell id="a5YLTvZABZ1f-nXH2WvJ-31" value="" style="endArrow=classic;html=1;rounded=0;entryX=0;entryY=0.5;entryDx=0;entryDy=0;exitX=1;exitY=0.5;exitDx=0;exitDy=0;" edge="1" parent="1" source="a5YLTvZABZ1f-nXH2WvJ-23" target="a5YLTvZABZ1f-nXH2WvJ-24">
          <mxGeometry width="50" height="50" relative="1" as="geometry">
            <mxPoint x="410" y="135" as="sourcePoint" />
            <mxPoint x="450" y="135" as="targetPoint" />
          </mxGeometry>
        </mxCell>
        <mxCell id="a5YLTvZABZ1f-nXH2WvJ-32" value="" style="endArrow=classic;html=1;rounded=0;entryX=0;entryY=0.5;entryDx=0;entryDy=0;exitX=1;exitY=0.5;exitDx=0;exitDy=0;" edge="1" parent="1" source="a5YLTvZABZ1f-nXH2WvJ-24" target="a5YLTvZABZ1f-nXH2WvJ-25">
          <mxGeometry width="50" height="50" relative="1" as="geometry">
            <mxPoint x="500" y="135" as="sourcePoint" />
            <mxPoint x="540" y="135" as="targetPoint" />
          </mxGeometry>
        </mxCell>
        <mxCell id="a5YLTvZABZ1f-nXH2WvJ-33" value="" style="endArrow=classic;html=1;rounded=0;entryX=0;entryY=0.5;entryDx=0;entryDy=0;exitX=1;exitY=0.5;exitDx=0;exitDy=0;" edge="1" parent="1" source="a5YLTvZABZ1f-nXH2WvJ-25" target="a5YLTvZABZ1f-nXH2WvJ-26">
          <mxGeometry width="50" height="50" relative="1" as="geometry">
            <mxPoint x="510" y="145" as="sourcePoint" />
            <mxPoint x="550" y="145" as="targetPoint" />
          </mxGeometry>
        </mxCell>
        <mxCell id="a5YLTvZABZ1f-nXH2WvJ-35" value="Documents" style="text;html=1;align=center;verticalAlign=middle;resizable=0;points=[];autosize=1;strokeColor=none;fillColor=none;" vertex="1" parent="1">
          <mxGeometry x="225" y="160" width="80" height="30" as="geometry" />
        </mxCell>
        <mxCell id="a5YLTvZABZ1f-nXH2WvJ-36" value="Chunks" style="text;html=1;align=center;verticalAlign=middle;resizable=0;points=[];autosize=1;strokeColor=none;fillColor=none;" vertex="1" parent="1">
          <mxGeometry x="435" y="160" width="60" height="30" as="geometry" />
        </mxCell>
        <mxCell id="a5YLTvZABZ1f-nXH2WvJ-37" value="&lt;div&gt;Embeddings&lt;/div&gt;&lt;div&gt;(vectors)&lt;br&gt;&lt;/div&gt;" style="text;html=1;align=center;verticalAlign=middle;resizable=0;points=[];autosize=1;strokeColor=none;fillColor=none;" vertex="1" parent="1">
          <mxGeometry x="620" y="155" width="90" height="40" as="geometry" />
        </mxCell>
        <mxCell id="a5YLTvZABZ1f-nXH2WvJ-38" value="Splitter" style="rounded=0;whiteSpace=wrap;html=1;fillColor=#f8cecc;strokeColor=#b85450;" vertex="1" parent="1">
          <mxGeometry x="350" y="110" width="50" height="30" as="geometry" />
        </mxCell>
        <mxCell id="a5YLTvZABZ1f-nXH2WvJ-39" value="" style="endArrow=classic;html=1;rounded=0;entryX=0;entryY=0.5;entryDx=0;entryDy=0;exitX=1;exitY=0.5;exitDx=0;exitDy=0;" edge="1" parent="1" target="a5YLTvZABZ1f-nXH2WvJ-38" source="a5YLTvZABZ1f-nXH2WvJ-19">
          <mxGeometry width="50" height="50" relative="1" as="geometry">
            <mxPoint x="305" y="125" as="sourcePoint" />
            <mxPoint x="595" y="80" as="targetPoint" />
          </mxGeometry>
        </mxCell>
        <mxCell id="a5YLTvZABZ1f-nXH2WvJ-40" value="" style="endArrow=classic;html=1;rounded=0;entryX=0;entryY=0.5;entryDx=0;entryDy=0;exitX=1;exitY=0.5;exitDx=0;exitDy=0;" edge="1" parent="1" source="a5YLTvZABZ1f-nXH2WvJ-38" target="a5YLTvZABZ1f-nXH2WvJ-23">
          <mxGeometry width="50" height="50" relative="1" as="geometry">
            <mxPoint x="315" y="135" as="sourcePoint" />
            <mxPoint x="435" y="125" as="targetPoint" />
          </mxGeometry>
        </mxCell>
      </root>
    </mxGraphModel>
  </diagram>
</mxfile>
